<svg xmlns="http://www.w3.org/2000/svg" version="1.1" xmlns:xlink="http://www.w3.org/1999/xlink" xmlns:svgjs="http://svgjs.dev/svgjs" width="1500" height="1500" viewBox="0 0 1500 1500"><rect width="1500" height="1500" fill="#ffffff"></rect><g transform="matrix(0.6666666666666666,0,0,0.6666666666666666,249.39393939393943,680.0107563693009)"><svg viewBox="0 0 396 55" data-background-color="#000000" preserveAspectRatio="xMidYMid meet" height="208" width="1500" xmlns="http://www.w3.org/2000/svg" xmlns:xlink="http://www.w3.org/1999/xlink"><g id="tight-bounds" transform="matrix(1,0,0,1,0.2400000000000091,0.2601567285224746)"><svg viewBox="0 0 395.52 54.47968654295507" height="54.47968654295507" width="395.52"><g><svg viewBox="0 0 546.6793953972979 75.30067278705751" height="54.47968654295507" width="395.52"><g><rect width="3.898185986518033" height="75.30067278705751" x="137.05653405340283" y="0" fill="#000000" opacity="1" stroke-width="0" stroke="transparent" fill-opacity="1" class="rect-yte-0" data-fill-palette-color="primary" rx="1%" id="yte-0" data-palette-color="#ffc107"></rect></g><g transform="matrix(1,0,0,1,151.1593953972979,0.187315106435463)"><svg viewBox="0 0 395.52 74.92604257418658" height="74.92604257418658" width="395.52"><g id="textblocktransform"><svg viewBox="0 0 395.52 74.92604257418658" height="74.92604257418658" width="395.52" id="textblock"><g><svg viewBox="0 0 395.52 43.22622950819672" height="43.22622950819672" width="395.52"><g transform="matrix(1,0,0,1,0,0)"><svg width="395.52" viewBox="-0.6 -33.25 311.08000000000004 34" height="43.22622950819672" data-palette-color="#ffc107"><path d="M11.1-4.95L9.95 0-0.6 0 7.5-31.25 22.95-31.25 31.05 0 20.5 0 19.35-4.95 11.1-4.95ZM15.5-21.65L14.95-21.65 12.9-12.9 17.5-12.9 15.5-21.65ZM57.95 0L47.15 0 43.3-9.9 42.95-9.9 42.95 0 32.95 0 32.95-32.5 42.95-33.25 42.95-16.75 43.3-16.75 46.9-25 57.7-25 51.9-13.1 57.95 0ZM70.7-8.5L70.7-8.5 70.7-6.75Q72.2-6.6 73.7-6.6L73.7-6.6Q78.35-6.6 83.1-8.1L83.1-8.1 84.3-0.75Q78.7 0.75 73.2 0.75L73.2 0.75Q66.2 0.75 63.07-2.53 59.95-5.8 59.95-12.5 59.95-19.2 63.07-22.48 66.2-25.75 73.17-25.75 80.15-25.75 82.8-23.85 85.45-21.95 85.45-16.75L85.45-16.75Q85.45-12.35 82.27-10.43 79.1-8.5 70.7-8.5ZM70.7-16.35L70.7-16.35 70.7-14.3 72.75-14.3Q74.55-14.3 75.37-14.68 76.2-15.05 76.2-16.4L76.2-16.4 76.2-18.45 74.15-18.45Q72.35-18.45 71.52-18.07 70.7-17.7 70.7-16.35ZM98.94-8.5L98.94-8.5 98.94-6.75Q100.44-6.6 101.94-6.6L101.94-6.6Q106.59-6.6 111.34-8.1L111.34-8.1 112.54-0.75Q106.94 0.75 101.44 0.75L101.44 0.75Q94.44 0.75 91.32-2.53 88.19-5.8 88.19-12.5 88.19-19.2 91.32-22.48 94.44-25.75 101.42-25.75 108.39-25.75 111.04-23.85 113.69-21.95 113.69-16.75L113.69-16.75Q113.69-12.35 110.52-10.43 107.34-8.5 98.94-8.5ZM98.94-16.35L98.94-16.35 98.94-14.3 100.99-14.3Q102.79-14.3 103.62-14.68 104.44-15.05 104.44-16.4L104.44-16.4 104.44-18.45 102.39-18.45Q100.59-18.45 99.77-18.07 98.94-17.7 98.94-16.35ZM131.44 0L131.44-17.5 130.74-17.5Q129.59-17.5 129.02-17.4 128.44-17.3 127.94-16.78 127.44-16.25 127.44-15.2L127.44-15.2 127.44 0 117.44 0 117.44-25 122.44-25 124.69-22.7Q127.74-25.75 132.69-25.75 137.64-25.75 139.84-23.7L139.84-23.7Q142.89-25.75 146.92-25.75 150.94-25.75 153.19-24.23 155.44-22.7 155.44-20L155.44-20 155.44 0 145.44 0 145.44-17.5 144.74-17.5Q143.69-17.5 143.09-17.4 142.49-17.3 141.99-16.85 141.49-16.4 141.44-15.5L141.44-15.5 141.44 0 131.44 0ZM185.59 0L167.64 0 167.64-31.25 183.84-31.25Q188.34-31.25 190.26-29.5 192.19-27.75 192.19-24.4 192.19-21.05 190.96-19.23 189.74-17.4 187.69-16.85L187.69-16.85 187.69-16.55Q193.74-15.5 193.74-8.3L193.74-8.3Q193.74-4.55 191.74-2.27 189.74 0 185.59 0L185.59 0ZM181.54-12.45L181.54-12.45 177.64-12.45 177.64-7.35 181.49-7.35Q183.59-7.35 183.59-9.9 183.59-12.45 181.54-12.45ZM180.79-24.4L180.79-24.4 177.64-24.4 177.64-19.75 180.74-19.75Q182.64-19.75 182.64-22.08 182.64-24.4 180.79-24.4ZM197.23 0L197.23-25 202.23-25 204.98-22.2Q207.93-24.9 212.38-25.75L212.38-25.75 212.98-16.3Q211.78-16.25 209.86-15.7 207.93-15.15 207.23-14.3L207.23-14.3 207.23 0 197.23 0ZM218.11-2.53Q214.98-5.8 214.98-12.5 214.98-19.2 218.11-22.48 221.23-25.75 228.23-25.75 235.23-25.75 238.36-22.48 241.48-19.2 241.48-12.5 241.48-5.8 238.36-2.53 235.23 0.75 228.23 0.75 221.23 0.75 218.11-2.53ZM225.73-16.35L225.73-16.35 225.73-6.55 227.28-6.55Q229.08-6.55 229.91-6.93 230.73-7.3 230.73-8.65L230.73-8.65 230.73-18.45 229.18-18.45Q227.38-18.45 226.56-18.07 225.73-17.7 225.73-16.35ZM260.48 0L248.68 0 243.68-25 253.48-25 255.53-10.15 256.08-10.15 259.23-25 266.73-25 269.53-10.15 270.08-10.15 272.48-25 282.28-25 277.28 0 264.98 0 263.03-10.75 262.63-10.75 260.48 0ZM285.48-25L290.48-25 292.98-22.5Q297.63-25.75 302.98-25.75L302.98-25.75Q306.48-25.75 308.48-24.23 310.48-22.7 310.48-20L310.48-20 310.48 0 300.48 0 300.48-17.5 298.93-17.5Q297.23-17.5 296.35-17.13 295.48-16.75 295.48-15.6L295.48-15.6 295.48 0 285.48 0 285.48-25Z" opacity="1" transform="matrix(1,0,0,1,0,0)" fill="#000000" class="wordmark-text-0" data-fill-palette-color="primary" id="text-0"></path></svg></g></svg></g><g transform="matrix(1,0,0,1,0,53.430904865573766)"><svg viewBox="0 0 232.20979199999996 21.49513770861282" height="21.49513770861282" width="232.20979199999996"><g transform="matrix(1,0,0,1,0,0)"><svg width="232.20979199999996" viewBox="-0.6 -33.75 372.66 34.5" height="21.49513770861282" data-palette-color="#ffca2f"><path d="M11.1-4.95L9.95 0-0.6 0 7.5-31.25 22.95-31.25 31.05 0 20.5 0 19.35-4.95 11.1-4.95ZM15.5-21.65L14.95-21.65 12.9-12.9 17.5-12.9 15.5-21.65ZM32.95-32.5L42.95-33.25 42.95-7.15Q44.55-6.85 45.4-6.8L45.4-6.8 44.95 0.55Q38.55 0.55 36.5-0.2L36.5-0.2Q33.95-1.15 33.35-2.6L33.35-2.6Q32.95-3.5 32.95-4.7L32.95-4.7 32.95-32.5ZM48.4-32.5L58.4-33.25 58.4-7.15Q60-6.85 60.85-6.8L60.85-6.8 60.4 0.55Q54 0.55 51.95-0.2L51.95-0.2Q49.4-1.15 48.8-2.6L48.8-2.6Q48.4-3.5 48.4-4.7L48.4-4.7 48.4-32.5ZM79.94-4.95L78.79 0 68.24 0 76.34-31.25 91.79-31.25 99.89 0 89.34 0 88.19-4.95 79.94-4.95ZM84.34-21.65L83.79-21.65 81.74-12.9 86.34-12.9 84.34-21.65ZM101.79 0L101.79-25 106.79-25 109.54-22.2Q112.49-24.9 116.94-25.75L116.94-25.75 117.54-16.3Q116.34-16.25 114.41-15.7 112.49-15.15 111.79-14.3L111.79-14.3 111.79 0 101.79 0ZM122.66-2.53Q119.54-5.8 119.54-12.5 119.54-19.2 122.66-22.48 125.79-25.75 132.79-25.75 139.79-25.75 142.91-22.48 146.04-19.2 146.04-12.5 146.04-5.8 142.91-2.53 139.79 0.75 132.79 0.75 125.79 0.75 122.66-2.53ZM130.29-16.35L130.29-16.35 130.29-6.55 131.84-6.55Q133.64-6.55 134.46-6.93 135.29-7.3 135.29-8.65L135.29-8.65 135.29-18.45 133.74-18.45Q131.94-18.45 131.11-18.07 130.29-17.7 130.29-16.35ZM149.53-25L159.53-25 159.53-6.55 161.08-6.55Q162.88-6.55 163.71-6.93 164.53-7.3 164.53-8.65L164.53-8.65 164.53-25 174.53-25 174.53 0 169.53 0 166.63-2.85Q163.63 0.75 158.08 0.75L158.08 0.75Q153.63 0.75 151.58-1.15 149.53-3.05 149.53-7.5L149.53-7.5 149.53-25ZM179.53-25L184.53-25 187.03-22.5Q191.68-25.75 197.03-25.75L197.03-25.75Q200.53-25.75 202.53-24.23 204.53-22.7 204.53-20L204.53-20 204.53 0 194.53 0 194.53-17.5 192.98-17.5Q191.28-17.5 190.41-17.13 189.53-16.75 189.53-15.6L189.53-15.6 189.53 0 179.53 0 179.53-25ZM234.03-33.25L234.03 0 229.03 0 226.88-2.1Q224.68 0.75 219.03 0.75L219.03 0.75Q215.98 0.75 213.78-0.4 211.58-1.55 210.43-3.55L210.43-3.55Q208.28-7.3 208.28-12.5L208.28-12.5Q208.28-18.85 211.08-22.1L211.08-22.1Q212.13-23.35 213.98-24.18 215.83-25 218.28-25L218.28-25 224.03-25 224.03-32.5 234.03-33.25ZM219.03-16.35L219.03-16.35 219.03-6.55 220.58-6.55Q222.28-6.55 223.1-6.88 223.93-7.2 224.03-8.35L224.03-8.35 224.03-18.45 222.48-18.45Q220.68-18.45 219.85-18.07 219.03-17.7 219.03-16.35ZM245.27-0.55L245.27-0.55 246.67-8.8Q251.27-7.65 254.95-7.65 258.62-7.65 260.87-7.95L260.87-7.95 260.87-10.45 256.37-10.85Q250.27-11.4 248-13.78 245.72-16.15 245.72-20.8L245.72-20.8Q245.72-27.2 248.5-29.6 251.27-32 257.92-32 264.57-32 269.92-30.75L269.92-30.75 268.67-22.75Q264.02-23.5 261.22-23.5 258.42-23.5 256.47-23.25L256.47-23.25 256.47-20.8 260.07-20.45Q266.62-19.8 269.12-17.32 271.62-14.85 271.62-10.45L271.62-10.45Q271.62-7.3 270.77-5.13 269.92-2.95 268.75-1.83 267.57-0.7 265.42-0.1 263.27 0.5 261.65 0.63 260.02 0.75 257.32 0.75L257.32 0.75Q250.82 0.75 245.27-0.55ZM300.37 0L289.57 0 285.72-9.9 285.37-9.9 285.37 0 275.37 0 275.37-32.5 285.37-33.25 285.37-16.75 285.72-16.75 289.32-25 300.12-25 294.32-13.1 300.37 0ZM313.37 0L303.37 0 303.37-23.75 313.37-25 313.37 0ZM303.94-26.6Q302.82-27.45 302.82-29.7 302.82-31.95 303.94-32.85 305.07-33.75 308.39-33.75 311.72-33.75 312.84-32.85 313.97-31.95 313.97-29.7 313.97-27.45 312.84-26.6 311.72-25.75 308.39-25.75 305.07-25.75 303.94-26.6ZM318.37-32.5L328.37-33.25 328.37-7.15Q329.97-6.85 330.82-6.8L330.82-6.8 330.37 0.55Q323.97 0.55 321.92-0.2L321.92-0.2Q319.37-1.15 318.77-2.6L318.77-2.6Q318.37-3.5 318.37-4.7L318.37-4.7 318.37-32.5ZM333.81-32.5L343.81-33.25 343.81-7.15Q345.41-6.85 346.26-6.8L346.26-6.8 345.81 0.55Q339.41 0.55 337.36-0.2L337.36-0.2Q334.81-1.15 334.21-2.6L334.21-2.6Q333.81-3.5 333.81-4.7L333.81-4.7 333.81-32.5ZM351.64-24Q354.86-25.75 360.46-25.75 366.06-25.75 370.76-24.2L370.76-24.2 369.61-17.4Q365.71-18.5 361.81-18.5L361.81-18.5Q360.61-18.5 358.41-18.3L358.41-18.3 358.41-16.7Q366.51-16.7 369.41-14.3L369.41-14.3Q370.86-13.1 371.46-11.68 372.06-10.25 372.06-8.22 372.06-6.2 371.59-4.6 371.11-3 370.14-2.05 369.16-1.1 368.11-0.5 367.06 0.1 365.36 0.35L365.36 0.35Q362.71 0.75 359.21 0.75L359.21 0.75Q353.01 0.75 348.01-0.7L348.01-0.7 349.26-7.8Q353.46-6.5 358.36-6.5L358.36-6.5Q360.61-6.5 362.46-6.7L362.46-6.7 362.46-8.3Q354.46-8.3 351.44-10.4 348.41-12.5 348.41-17.38 348.41-22.25 351.64-24Z" opacity="1" transform="matrix(1,0,0,1,0,0)" fill="#000000" class="slogan-text-1" data-fill-palette-color="secondary" id="text-1"></path></svg></g></svg></g></svg></g></svg></g><g transform="matrix(1,0,0,1,0,0.187315106435463)"><svg viewBox="0 0 126.85185869602577 74.92604257418658" height="74.92604257418658" width="126.85185869602577"><g><svg xmlns="http://www.w3.org/2000/svg" xmlns:xlink="http://www.w3.org/1999/xlink" version="1.1" x="0" y="0" viewBox="6.774 46.575 90.45 53.425" enable-background="new 0 0 100 100" xml:space="preserve" height="74.92604257418658" width="126.85185869602577" class="icon-icon-0" data-fill-palette-color="accent" id="icon-0"><g fill="#ffc107" data-fill-palette-color="accent"><polygon fill="#000000" points="21.07,78.115 26.417,87.941 19.928,100 13.046,100  " data-fill-palette-color="accent"></polygon><polygon fill="#000000" points="60.734,86.577 65.427,95.227 62.572,100 55.708,100  " data-fill-palette-color="accent"></polygon><polygon fill="#000000" points="32.462,46.575 18.231,46.575 18.231,51.761 6.774,51.761 6.774,59.358 36.683,90.231 36.683,100    43.557,100 43.557,78.051 63.004,78.051 74.652,90.045 74.652,100 81.546,100 81.546,79.137 93.727,91.679 97.224,91.679    69.245,62.494 47.939,62.494  " data-fill-palette-color="accent"></polygon></g></svg></g></svg></g></svg></g><defs></defs></svg><rect width="395.52" height="54.47968654295507" fill="none" stroke="none" visibility="hidden"></rect></g></svg></g></svg>